<svg width="32" height="32" xmlns="http://www.w3.org/2000/svg">

 <g>
  <title>background</title>
  <rect fill="none" id="canvas_background" height="402" width="582" y="-1" x="-1"/>
 </g>
 <g>
  <title>Layer 1</title>
  <polyline id="svg_2" stroke-width="2" stroke-miterlimit="10" stroke-linejoin="round" stroke-linecap="round" stroke="#FFFFFF" points="   649,137.999 675,137.999 675,155.999 661,155.999  " fill="none"/>
  <polyline id="svg_3" stroke-width="2" stroke-miterlimit="10" stroke-linejoin="round" stroke-linecap="round" stroke="#FFFFFF" points="   653,155.999 649,155.999 649,141.999  " fill="none"/>
  <polyline id="svg_4" stroke-width="2" stroke-miterlimit="10" stroke-linejoin="round" stroke-linecap="round" stroke="#FFFFFF" points="   661,156 653,162 653,156  " fill="none"/>
  <path stroke="#ffffff" fill="#ffffff" id="svg_6" d="m25,13l-1,0l0,-3c0,-0.552 -0.447,-1 -1,-1l-19,0c-0.552,0 -1,0.448 -1,1s0.448,1 1,1l18,0l0,12c0,2.757 -2.243,5 -5,5l-7,0c-2.757,0 -5,-2.243 -5,-5l0,-9c0,-0.552 -0.448,-1 -1,-1s-1,0.448 -1,1l0,9c0,3.859 3.14,7 7,7l7,0c3.859,0 7,-3.141 7,-7l0,-1l1,0c2.206,0 4,-1.794 4,-4l0,-1c0,-2.206 -1.794,-4 -4,-4zm2,5c0,1.103 -0.897,2 -2,2l-1,0l0,-5l1,0c1.103,0 2,0.897 2,2l0,1z"/>
  <path stroke="#ffffff" fill="#ffffff" id="svg_7" d="m9,8c0.552,0 1,-0.448 1,-1l0,-2c0,-0.552 -0.448,-1 -1,-1s-1,0.448 -1,1l0,2c0,0.552 0.448,1 1,1z"/>
  <path stroke="#ffffff" fill="#ffffff" id="svg_8" d="m13,8c0.552,0 1,-0.448 1,-1l0,-4c0,-0.552 -0.448,-1 -1,-1s-1,0.448 -1,1l0,4c0,0.552 0.448,1 1,1z"/>
  <path stroke="#ffffff" fill="#ffffff" id="svg_9" d="m17,8c0.553,0 1,-0.448 1,-1l0,-2c0,-0.552 -0.447,-1 -1,-1c-0.552,0 -1,0.448 -1,1l0,2c0,0.552 0.448,1 1,1z"/>
 </g>
</svg>