<svg width="128" height="128" xmlns="http://www.w3.org/2000/svg">

 <g>
  <title>background</title>
  <rect fill="none" id="canvas_background" height="402" width="582" y="-1" x="-1"/>
 </g>
 <g>
  <title>Layer 1</title>
  <path id="svg_2" d="m30,49c0,18.7 15.3,34 34,34s34,-15.3 34,-34s-15.3,-34 -34,-34s-34,15.3 -34,34zm60,0c0,14.3 -11.7,26 -26,26s-26,-11.7 -26,-26s11.7,-26 26,-26s26,11.7 26,26z"/>
  <path id="svg_3" d="m24.4,119.4c10.6,-10.6 24.6,-16.4 39.6,-16.4s29,5.8 39.6,16.4l5.7,-5.7c-12.1,-12 -28.2,-18.7 -45.3,-18.7s-33.2,6.7 -45.3,18.7l5.7,5.7z"/>
 </g>
</svg>